# xmcd
#
# Track frame offsets:
#	150
#	19363
#	34585
#	49004
#	66767
#	80446
#	99242
#	114484
#	128962
#	144353
#	160618
#	177574
#	193249
#	205174
#	222064
#	238787
#	251100
#	272490
#	289438
#	303093
#	316824
#	335463
#
# Disc length: 4632 seconds
#
# Revision: 0
# Processed by: cddbd v1.5.2PL0 Copyright (c) Steve Scherf et al.
# Submitted via: dBpowerAMP V4.0
#
DISCID=3e121616
DTITLE=Berg Guerra - Mi Vida
DYEAR=2006
DGENRE=Folk-Rock
TTITLE0=Mi Vida
TTITLE1=Solidao
TTITLE2=Deixa
TTITLE3=Voce e Eu (You and I)
TTITLE4=Por Ela
TTITLE5=A Nordestina
TTITLE6=Faz Eu Perder o Juizo (Killing Me Softly)
TTITLE7=Porta Retrato
TTITLE8=Amor Bandido
TTITLE9=Coração de Quem Ama
TTITLE10=To por Ai
TTITLE11=E o Ontem nao Volta Jamais
TTITLE12=Colarinho Branco
TTITLE13=Vamor Beber
TTITLE14=Quer Casar Comigo
TTITLE15=40 e 20
TTITLE16=Decidida
TTITLE17=Em Cada Despertar
TTITLE18=Eu Duvido
TTITLE19=Vai Sofrer pra Lá
TTITLE20=Sinonimo
TTITLE21=Quer Namorar Comigo
EXTD=Compilation Ericle Luna Costa
EXTT0=
EXTT1=
EXTT2=
EXTT3=
EXTT4=
EXTT5=
EXTT6=
EXTT7=
EXTT8=
EXTT9=
EXTT10=
EXTT11=
EXTT12=
EXTT13=
EXTT14=
EXTT15=
EXTT16=
EXTT17=
EXTT18=
EXTT19=
EXTT20=
EXTT21=
PLAYORDER=
